<svg xmlns="http://www.w3.org/2000/svg" width="1000" height="620" viewBox="0 0 1000 620" role="img" aria-labelledby="title desc">
  <title id="title">Research interests</title>
  <desc id="desc">User collaborator agents from real user interaction, with two parallel directions: user modeling and long-horizon agentic alignment. Related research areas include long-horizon tasks, model capability improvement and training stability; benchmark design and execution-based assessment; data synthesis, environment generation and post-training.</desc>
  <defs>
    <marker id="arrow" viewBox="0 0 10 10" refX="8" refY="5" markerWidth="6" markerHeight="6" orient="auto-start-reverse"><path d="M1 1L8 5L1 9" fill="none" stroke="#80929f" stroke-width="1.3"/></marker>
    <style>
      text{font-family:Arial,Helvetica,sans-serif;fill:#263641}
      .heading{font-size:25px;font-weight:600}
      .body{font-size:20px;fill:#566771}
      .small{font-size:18px;fill:#566771}
      .label{font-size:13px;letter-spacing:2px;fill:#72818c}
      .flow{fill:none;stroke:#a2afb8;stroke-width:1.4}
    </style>
  </defs>
  <rect width="1000" height="620" fill="#fff"/>
  <rect x="32" y="18" width="936" height="86" rx="3" fill="#f1f6fa" stroke="#d4dfe5"/>
  <text x="500" y="54" text-anchor="middle" class="heading">User collaborator agents</text>
  <text x="500" y="84" text-anchor="middle" class="body">from real user interaction</text>
  <path class="flow" d="M500 104V120H258V146M500 120H742V146" marker-end="url(#arrow)"/>
  <path class="flow" d="M258 120V146" marker-end="url(#arrow)"/>
  <g transform="translate(0,110)">
  <rect x="32" y="48" width="452" height="98" rx="3" fill="#fafcfd" stroke="#d4dfe5"/>
  <rect x="516" y="48" width="452" height="98" rx="3" fill="#fafcfd" stroke="#d4dfe5"/>
  <text x="258" y="107" text-anchor="middle" class="heading">User modeling</text>
  <text x="742" y="107" text-anchor="middle" class="heading" style="font-size:24px">Long-horizon agentic alignment</text>
  <path class="flow" d="M258 156V178H742V156"/>
  <path class="flow" d="M258 178V152" marker-end="url(#arrow)"/>
  <path class="flow" d="M742 178V152" marker-end="url(#arrow)"/>
  <path class="flow" d="M182 240V210H818V240M500 240V178"/>
  <rect x="32" y="240" width="300" height="126" rx="3" fill="#fafcfd" stroke="#d4dfe5"/>
  <rect x="350" y="240" width="300" height="126" rx="3" fill="#fafcfd" stroke="#d4dfe5"/>
  <rect x="668" y="240" width="300" height="126" rx="3" fill="#fafcfd" stroke="#d4dfe5"/>
  <text x="182" y="278" text-anchor="middle" class="heading" style="font-size:22px">Long-horizon tasks</text>
  <text x="182" y="313" text-anchor="middle" class="small">Model capability improvement</text>
  <text x="182" y="342" text-anchor="middle" class="small">Training stability</text>
  <text x="500" y="278" text-anchor="middle" class="heading" style="font-size:22px">Benchmark design</text>
  <text x="500" y="313" text-anchor="middle" class="small">Execution-based assessment</text>
  <text x="818" y="278" text-anchor="middle" class="heading" style="font-size:22px">Data synthesis</text>
  <text x="818" y="313" text-anchor="middle" class="small">Environment generation</text>
  <text x="818" y="342" text-anchor="middle" class="small">Post-training</text>
  <text x="208" y="426" text-anchor="middle" class="body">User</text>
  <text x="500" y="426" text-anchor="middle" class="body">Agent</text>
  <text x="792" y="426" text-anchor="middle" class="body">Environment</text>
  <path class="flow" d="M254 420H446" marker-start="url(#arrow)" marker-end="url(#arrow)"/>
  <path class="flow" d="M553 420H693" marker-start="url(#arrow)" marker-end="url(#arrow)"/>
  <path class="flow" d="M792 441V476H579M421 476H208V441" marker-end="url(#arrow)"/>
  <text x="500" y="482" text-anchor="middle" class="small">Feedback</text>
</g>
</svg>
